<?xml version="1.0" encoding="UTF-8"?>
<svg id="Layer_2" data-name="Layer 2" xmlns="http://www.w3.org/2000/svg" viewBox="0 0 127.44 127.44">
  <defs>
    <style>
      .cls-1 {
        fill: #0200ff;
      }

      .cls-2 {
        fill: #fff;
      }
    </style>
  </defs>
  <g id="Layer_1-2" data-name="Layer 1">
    <rect class="cls-1" width="127.44" height="127.44"/>
    <path class="cls-2" d="M82.53,69.9c-.4-11.59-8.16-16.85-18.81-16.85-2.04,0-3.96.19-5.76.58V20.51s0-.03,0-.05c0-3.62-2.93-6.55-6.55-6.55s-6.55,2.93-6.55,6.55c0,.02,0,.03,0,.05v75.25c0,12.25,7.92,17.77,18.85,17.77s18.85-5.52,18.85-17.77v-25.86h-.04ZM69.47,95.3c0,4.44-2.28,6.84-5.81,6.84s-5.7-2.39-5.7-6.84v-24.09c.03-4.4,2.3-6.77,5.81-6.77s5.7,2.39,5.7,6.84v20.44h0v3.59Z"/>
  </g>
</svg>
